<?xml version="1.0" encoding="UTF-8" standalone="no"?>
<!-- Created with Inkscape (http://www.inkscape.org/) -->

<svg
   width="1500"
   height="1000"
   viewBox="0 0 1500 1000"
   id="svg2"
   version="1.1"
   inkscape:version="1.2.2 (b0a8486541, 2022-12-01)"
   sodipodi:docname="Electronic-Arts-Logo.svg"
   xmlns:inkscape="http://www.inkscape.org/namespaces/inkscape"
   xmlns:sodipodi="http://sodipodi.sourceforge.net/DTD/sodipodi-0.dtd"
   xmlns="http://www.w3.org/2000/svg"
   xmlns:svg="http://www.w3.org/2000/svg"
   xmlns:rdf="http://www.w3.org/1999/02/22-rdf-syntax-ns#"
   xmlns:cc="http://creativecommons.org/ns#"
   xmlns:dc="http://purl.org/dc/elements/1.1/">
  <defs
     id="defs4">
    <clipPath
       clipPathUnits="userSpaceOnUse"
       id="clipPath8060">
      <path
         d="m 206.79492,499.85328 h 14.23136 v -6.91618 h -14.23136 z"
         id="path8062"
         inkscape:connector-curvature="0" />
    </clipPath>
    <radialGradient
       fx="0"
       fy="0"
       cx="0"
       cy="0"
       r="1"
       gradientUnits="userSpaceOnUse"
       gradientTransform="matrix(9.4754755,0,0,-9.4754755,213.88357,499.94288)"
       spreadMethod="pad"
       id="radialGradient8064">
      <stop
         style="stop-opacity:1;stop-color:#ed2a23"
         offset="0"
         id="stop8066" />
      <stop
         style="stop-opacity:1;stop-color:#ed2a23"
         offset="0.1484071"
         id="stop8068" />
      <stop
         style="stop-opacity:1;stop-color:#af2323"
         offset="1"
         id="stop8070" />
    </radialGradient>
    <clipPath
       clipPathUnits="userSpaceOnUse"
       id="clipPath8030">
      <path
         d="m 204.5012,503.36178 h 18.92103 V 484.44216 H 204.5012 Z"
         id="path8032"
         inkscape:connector-curvature="0" />
    </clipPath>
    <radialGradient
       fx="0"
       fy="0"
       cx="0"
       cy="0"
       r="1"
       gradientUnits="userSpaceOnUse"
       gradientTransform="matrix(11.770713,0,0,-11.770713,212.77197,496.17237)"
       spreadMethod="pad"
       id="radialGradient8034">
      <stop
         style="stop-opacity:1;stop-color:#ffffff"
         offset="0"
         id="stop8036" />
      <stop
         style="stop-opacity:1;stop-color:#ffffff"
         offset="0.780899"
         id="stop8038" />
      <stop
         style="stop-opacity:1;stop-color:#ffffff"
         offset="0.91138878"
         id="stop8040" />
      <stop
         style="stop-opacity:1;stop-color:#d5d7d8"
         offset="1"
         id="stop8042" />
    </radialGradient>
    <clipPath
       clipPathUnits="userSpaceOnUse"
       id="clipPath8008">
      <path
         d="m 182.156,480.486 h 63.466 v 26.645 h -63.466 z"
         id="path8010"
         inkscape:connector-curvature="0" />
    </clipPath>
    <clipPath
       clipPathUnits="userSpaceOnUse"
       id="clipPath7990">
      <path
         d="M 212.28595,513.06069 233.12052,495.5784 215.6383,474.74392 194.80373,492.22621 Z"
         id="path7992"
         inkscape:connector-curvature="0" />
    </clipPath>
    <linearGradient
       x1="0"
       y1="0"
       x2="1"
       y2="0"
       gradientUnits="userSpaceOnUse"
       gradientTransform="matrix(14.790032,-12.410316,-12.410316,-14.790032,206.56914,500.11604)"
       spreadMethod="pad"
       id="linearGradient7994">
      <stop
         style="stop-opacity:1;stop-color:#dfe0e1"
         offset="0"
         id="stop7996" />
      <stop
         style="stop-opacity:1;stop-color:#dfe0e1"
         offset="0.18205762"
         id="stop7998" />
      <stop
         style="stop-opacity:1;stop-color:#7a7f83"
         offset="1"
         id="stop8000" />
    </linearGradient>
    <clipPath
       clipPathUnits="userSpaceOnUse"
       id="clipPath7944">
      <path
         d="m 224.83294,504.77677 v -21.74675 h -21.746 v 21.74675 z"
         id="path7946"
         inkscape:connector-curvature="0" />
    </clipPath>
    <linearGradient
       x1="0"
       y1="0"
       x2="1"
       y2="0"
       gradientUnits="userSpaceOnUse"
       gradientTransform="matrix(0,-22.134757,-22.134757,0,213.95619,505.08753)"
       spreadMethod="pad"
       id="linearGradient7948">
      <stop
         style="stop-opacity:1;stop-color:#e4ebef"
         offset="0"
         id="stop7950" />
      <stop
         style="stop-opacity:1;stop-color:#fffffb"
         offset="0.0969078"
         id="stop7952" />
      <stop
         style="stop-opacity:1;stop-color:#fffffb"
         offset="0.26767"
         id="stop7954" />
      <stop
         style="stop-opacity:1;stop-color:#fffffb"
         offset="0.3094559"
         id="stop7956" />
      <stop
         style="stop-opacity:1;stop-color:#91999c"
         offset="0.516861"
         id="stop7958" />
      <stop
         style="stop-opacity:1;stop-color:#91999c"
         offset="0.52826696"
         id="stop7960" />
      <stop
         style="stop-opacity:1;stop-color:#afafb0"
         offset="0.666672"
         id="stop7962" />
      <stop
         style="stop-opacity:1;stop-color:#cbd6d9"
         offset="0.76272531"
         id="stop7964" />
      <stop
         style="stop-opacity:1;stop-color:#cbd6d9"
         offset="0.797974"
         id="stop7966" />
      <stop
         style="stop-opacity:1;stop-color:#ecedee"
         offset="0.893554"
         id="stop7968" />
      <stop
         style="stop-opacity:1;stop-color:#ecedee"
         offset="0.959595"
         id="stop7970" />
      <stop
         style="stop-opacity:1;stop-color:#ecedee"
         offset="1"
         id="stop7972" />
    </linearGradient>
    <clipPath
       clipPathUnits="userSpaceOnUse"
       id="clipPath7922">
      <path
         d="m 182.156,480.486 h 63.466 v 26.645 h -63.466 z"
         id="path7924"
         inkscape:connector-curvature="0" />
    </clipPath>
  </defs>
  <sodipodi:namedview
     id="base"
     pagecolor="#ffffff"
     bordercolor="#666666"
     borderopacity="1.0"
     inkscape:pageopacity="0.0"
     inkscape:pageshadow="2"
     inkscape:zoom="0.15842285"
     inkscape:cx="385.04545"
     inkscape:cy="-258.80104"
     inkscape:document-units="px"
     inkscape:current-layer="layer1"
     showgrid="false"
     units="px"
     inkscape:window-width="1920"
     inkscape:window-height="995"
     inkscape:window-x="0"
     inkscape:window-y="0"
     inkscape:window-maximized="1"
     inkscape:showpageshadow="2"
     inkscape:pagecheckerboard="0"
     inkscape:deskcolor="#d1d1d1" />
  <metadata
     id="metadata7">
    <rdf:RDF>
      <cc:Work
         rdf:about="">
        <dc:format>image/svg+xml</dc:format>
        <dc:type
           rdf:resource="http://purl.org/dc/dcmitype/StillImage" />
      </cc:Work>
    </rdf:RDF>
  </metadata>
  <g
     inkscape:label="Taso 1"
     inkscape:groupmode="layer"
     id="layer1"
     transform="translate(0,-52.362149)">
    <g
       id="g7976"
       transform="matrix(45.522829,0,0,-45.520853,-9240.1056,23035.22)">
      <g
         id="g7978">
        <g
           id="g7984">
          <g
             id="g7986">
            <g
               id="g7988"
               clip-path="url(#clipPath7990)" />
          </g>
        </g>
      </g>
    </g>
    <g
       id="g8004"
       transform="matrix(45.522829,0,0,-45.520853,-9240.1056,23035.22)">
      <g
         id="g8006"
         clip-path="url(#clipPath8008)">
        <g
           id="g8012"
           transform="translate(223.6548,493.9024)" />
      </g>
    </g>
    <path
       inkscape:connector-curvature="0"
       id="path8072"
       style="fill:#000000;stroke:none;stroke-width:2.22217"
       d="M 530.08093,543.01041 H 355.31879 l 40.06009,-62.63671 h 108.57194 l 39.6504,-62.40909 H 301.37424 l -39.4683,62.40909 h 58.13265 l -79.1642,125.09131 h 325.39718 c 0,0 -36.47282,-61.53425 -36.19064,-62.4546 z m -149.86116,-250.09158 -39.33173,62.40909 256.93087,-0.0911 39.37724,-62.31805 H 380.21977 Z"
       sodipodi:nodetypes="ccccccccccccccccc" />
    <path
       inkscape:connector-curvature="0"
       id="path8076"
       style="fill:#000000;fill-opacity:1;fill-rule:nonzero;stroke:none;stroke-width:2.22217"
       d="m 1067.9029,667.96001 v 2.23053 h 5.1441 v 10.925 h 2.5492 v -10.925 h 5.1441 v -2.23053 z" />
    <path
       inkscape:connector-curvature="0"
       id="path8080"
       style="fill:#000000;fill-opacity:1;fill-rule:nonzero;stroke:none;stroke-width:2.22217"
       d="m 1096.1722,667.96001 -5.053,7.8296 -5.1441,-7.8296 h -2.2306 v 13.11002 h 2.2306 v -8.10271 l -0.2276,-1.41116 0.7739,1.32011 4.1881,6.60051 h 0.4552 l 4.1881,-6.50946 0.5918,-1.41116 v 1.41116 8.10271 h 2.2761 v -13.11002 z" />
    <path
       inkscape:connector-curvature="0"
       id="path8092"
       style="fill:#000000;fill-opacity:1;fill-rule:nonzero;stroke:none;stroke-width:2.22217"
       d="m 500.07842,769.80401 c 0,7.96615 -2.77689,14.88531 -8.28516,20.43889 -5.59931,5.55353 -12.42773,8.37582 -20.34871,8.37582 h -33.73241 c -8.10306,0 -14.88596,-2.73125 -20.30318,-8.10271 -5.32617,-5.37145 -8.05754,-12.01749 -8.05754,-20.21125 v -13.38313 h 20.80393 l 3.1866,12.38164 c 1.36568,5.18938 4.87094,7.78407 10.5613,7.78407 h 22.9435 c 2.91347,0 5.1896,-1.09249 7.01051,-3.0954 1.72987,-2.13949 2.5948,-4.87073 2.5948,-8.01167 v -14.74875 c 0,-7.19229 -3.14107,-10.92502 -9.60531,-10.92502 h -28.86147 c -7.82993,0 -14.56731,-2.73125 -20.25766,-8.23927 -5.50826,-5.73565 -8.3762,-12.56376 -8.3762,-20.57542 v -19.39189 c 0,-7.78407 2.86794,-14.52114 8.3762,-20.16574 5.69035,-5.64457 12.42773,-8.37584 20.25766,-8.37584 h 33.45927 c 7.92098,0 14.65836,2.68573 20.12109,7.96616 5.50827,5.37146 8.10307,12.10855 8.10307,20.21126 v 12.10854 h -20.66736 l -3.09556,-10.97052 c -1.63882,-5.28042 -5.23513,-7.8296 -10.51577,-7.8296 H 442.8107 c -3.00451,0 -5.32617,1.09252 -7.10156,3.232 -1.82092,2.04843 -2.64033,4.68865 -2.64033,7.96614 v 11.38022 c 0,7.05571 3.23212,10.60636 9.74189,10.60636 h 28.63385 c 7.82993,0 14.65836,2.82228 20.16662,8.55793 5.69036,5.69009 8.46725,12.33613 8.46725,20.16571 z" />
    <path
       inkscape:connector-curvature="0"
       id="path8096"
       style="fill:#000000;fill-opacity:1;fill-rule:nonzero;stroke:none;stroke-width:2.22217"
       d="m 618.08706,720.38183 c 0,7.87511 -2.91347,14.65771 -8.51278,20.25678 -5.69035,5.64457 -12.56429,8.46689 -20.43973,8.46689 h -37.14664 v 49.52666 H 528.08844 V 663.57181 h 61.04611 c 7.87544,0 14.74938,2.82229 20.43973,8.37584 5.59931,5.55353 8.51278,12.29062 8.51278,20.07467 z M 584.44568,685.3763 h -32.45777 v 41.8792 h 32.45777 l 6.91947,-3.14096 c 1.7754,-2.09396 2.64033,-4.68864 2.64033,-8.01169 v -19.66498 c 0,-3.27751 -0.86493,-5.78115 -2.64033,-7.92064 z" />
    <path
       inkscape:connector-curvature="0"
       id="path8100"
       style="fill:#000000;fill-opacity:1;fill-rule:nonzero;stroke:none;stroke-width:2.22217"
       d="m 830.00493,798.63692 -21.942,-52.8042 h -22.67038 v 52.8042 h -23.945 V 663.57656 h 59.77147 c 8.01202,0 14.7494,2.82227 20.30317,8.33031 5.5538,5.64458 8.42174,12.42718 8.42174,20.1202 v 23.53429 c 0,6.14531 -1.72987,11.69887 -5.05305,16.5696 -3.50524,4.91625 -7.87544,8.42136 -13.24713,10.65187 l 23.76291,55.85409 z M 816.71226,685.38103 h -31.31971 v 38.60169 h 31.31971 l 6.6008,-3.00438 c 1.82093,-2.04842 2.64033,-4.64311 2.64033,-7.92062 V 696.3971 c 0,-3.14096 -0.8194,-5.73565 -2.64033,-7.92065 z" />
    <path
       inkscape:connector-curvature="0"
       id="path8104"
       style="fill:#000000;fill-opacity:1;fill-rule:nonzero;stroke:none;stroke-width:2.22217"
       d="M 957.84651,685.35372 H 923.20364 V 798.60961 H 899.34966 V 685.35372 h -34.41524 v -21.75896 h 92.91209 z" />
    <path
       inkscape:connector-curvature="0"
       id="path8108"
       style="fill:#000000;fill-opacity:1;fill-rule:nonzero;stroke:none;stroke-width:2.22217"
       d="m 1066.0772,769.80401 c 0,7.96615 -2.8224,14.88531 -8.2851,20.43889 -5.6904,5.55353 -12.4733,8.37582 -20.4853,8.37582 h -33.7324 c -8.012,0 -14.7494,-2.73125 -20.2577,-8.10271 -5.32615,-5.37145 -8.10304,-12.01749 -8.10304,-20.21125 v -13.38313 h 20.84944 l 3.0956,12.38164 c 1.4567,5.18938 5.0075,7.78407 10.6523,7.78407 h 22.9435 c 2.8679,0 5.2351,-1.09249 7.0561,-3.0954 1.7298,-2.13949 2.4582,-4.87073 2.4582,-8.01167 v -14.74875 c 0,-7.19229 -3.0956,-10.92502 -9.5143,-10.92502 h -28.7704 c -7.921,0 -14.7494,-2.73125 -20.3032,-8.23927 -5.55379,-5.73565 -8.46724,-12.56376 -8.46724,-20.57542 v -19.39189 c 0,-7.78407 2.91345,-14.52114 8.46724,-20.16574 5.5538,-5.64457 12.3822,-8.37584 20.3032,-8.37584 h 33.3227 c 8.012,0 14.7039,2.68573 20.1666,7.96616 5.4172,5.37146 8.1941,12.10855 8.1941,20.21126 v 12.10854 h -20.7129 l -3.1866,-10.97052 c -1.6388,-5.28042 -5.144,-7.8296 -10.4702,-7.8296 h -22.6704 c -2.9134,0 -5.3717,1.09252 -7.0105,3.232 -1.8209,2.04843 -2.6403,4.68865 -2.6403,7.96614 v 11.38022 c 0,7.05571 3.2321,10.60636 9.6508,10.60636 h 28.6794 c 7.921,0 14.6128,2.82228 20.1666,8.55793 5.7814,5.69009 8.6038,12.33613 8.6038,20.16571 z" />
    <path
       inkscape:connector-curvature="0"
       id="path8112"
       style="fill:#000000;fill-opacity:1;fill-rule:nonzero;stroke:none;stroke-width:2.22217"
       d="m 698.94908,685.35372 h -22.94351 l -7.01051,3.14093 c -1.63882,2.13949 -2.54927,4.73418 -2.54927,7.96618 v 69.19169 c 0,3.18644 0.91045,5.73562 2.54927,7.87509 l 7.01051,3.36855 h 22.94351 l 6.91947,-3.36855 c 1.82091,-2.13947 2.73138,-4.68865 2.73138,-7.87509 v -69.19169 c 0,-3.232 -0.91047,-5.82669 -2.73138,-7.96618 z m 33.45929,84.25911 c 0,8.19375 -2.77691,15.02189 -8.3762,20.62095 -5.73589,5.50803 -12.38222,8.37583 -20.48529,8.37583 h -32.27569 c -7.96648,0 -14.88595,-2.8678 -20.39422,-8.37583 -5.55378,-5.59906 -8.46724,-12.4272 -8.46724,-20.62095 v -77.65858 c 0,-7.64751 2.91346,-14.47562 8.46724,-20.02918 5.50827,-5.59904 12.42774,-8.33031 20.39422,-8.33031 h 32.27569 c 8.10307,0 14.7494,2.73127 20.48529,8.23927 5.59929,5.46251 8.3762,12.33615 8.3762,20.12022 z" />
    <path
       style="fill:#000000;fill-opacity:1;stroke-linejoin:round"
       d="m 527.73192,543.01557 h 156.4295 l 35.10065,-62.24711 h -160.6607 c 35.06679,-62.09756 70.91117,-126.14446 106.568,-187.9039 h 674.17883 l -31.3775,66.70723 H 696.15604 l -33.32146,61.17857 H 823.83345 L 731.52858,605.45508 H 555.61136 Z"
       id="path893"
       sodipodi:nodetypes="ccccccccccccc" />
    <path
       style="fill:#000000;fill-opacity:1;stroke-linejoin:round"
       d="m 1313.5562,347.59425 -120.4841,258.95251 h -85.2338 L 1236.263,343.43438 Z"
       id="path2964"
       sodipodi:nodetypes="ccccc" />
    <path
       style="fill:#000000;fill-opacity:1;stroke-linejoin:round"
       d="M 1151.7242,347.92472 1030.451,606.87723 h -85.2338 l 129.2137,-263.11238 z"
       id="path2964-3"
       sodipodi:nodetypes="ccccc" />
    <path
       style="fill:#000000;fill-opacity:1;stroke-linejoin:round"
       d="M 993.58323,348.04678 870.73201,606.99929 H 785.49822 L 916.28998,343.88691 Z"
       id="path2964-3-6"
       sodipodi:nodetypes="ccccc" />
  </g>
</svg>
