<?xml version="1.0" encoding="UTF-8" standalone="no"?>
<!-- Created with Inkscape (http://www.inkscape.org/) -->

<svg
   width="341.75735mm"
   height="77.161774mm"
   viewBox="0 0 341.75736 77.161771"
   version="1.1"
   id="svg1"
   xmlns="http://www.w3.org/2000/svg"
   xmlns:svg="http://www.w3.org/2000/svg">
  <defs
     id="defs1" />
  <g
     id="layer1"
     transform="translate(0,-30.573529)">
    <path
       style="font-size:38.1px;line-height:1.4;font-family:Unifont;-inkscape-font-specification:Unifont;letter-spacing:0px;opacity:0.997492;fill:#ffffff;stroke-width:124.734;stroke-miterlimit:8"
       d="m 321.40022,83.730516 v -2.38125 h -16.66875 v 2.38125 z"
       id="path22">
    
      <animate
        attributeName="fill"
        values="#ffffff;transparent"
        begin="0s"
        dur="1.25s"
        calcMode="discrete"
        repeatCount="indefinite"/>
    </path>
    <path
       style="font-size:38.1px;line-height:1.4;font-family:Unifont;-inkscape-font-specification:Unifont;letter-spacing:0px;opacity:0.997492;fill:#ffffff;stroke-width:124.734;stroke-miterlimit:8"
       d="m 302.3502,64.680517 v -2.38125 h -2.38125 v 2.38125 z m -7.14375,14.287499 h 4.7625 v -2.38125 h -4.7625 v -4.7625 h 4.7625 v 4.7625 h 2.38125 v -4.7625 h -2.38125 v -2.381249 h -4.7625 v -7.14375 h 4.7625 v -2.38125 h -4.7625 v -2.38125 h -2.38125 v 2.38125 h -4.76249 v 2.38125 h -2.38125 v 4.7625 h 2.38125 v 2.38125 h 4.76249 v 7.143749 h -4.76249 v 2.38125 h 4.76249 v 2.38125 h 2.38125 z m -7.14374,-2.38125 v -2.38125 h -2.38125 v 2.38125 z m 0,-9.524999 v -4.7625 h 4.76249 v 4.7625 z"
       id="path21" />
    <path
       style="font-size:38.1px;line-height:1.4;font-family:Unifont;-inkscape-font-specification:Unifont;letter-spacing:0px;opacity:0.997492;fill:#ffffff;stroke-width:124.734;stroke-miterlimit:8"
       d="m 265.04397,68.649267 v 4.7625 h 2.38125 v -4.7625 z m 2.38125,0 h 4.7625 v -2.38125 h -4.7625 z m 7.14375,2.38125 v -2.38125 h -2.38125 v 2.38125 z m 0,0 v 2.38125 h 4.7625 v -2.38125 z m 4.7625,0 h 2.38125 v -4.7625 h -2.38125 z"
       id="path20" />
    <path
       style="font-size:38.1px;line-height:1.4;font-family:Unifont;-inkscape-font-specification:Unifont;letter-spacing:0px;opacity:0.997492;fill:#ffffff;stroke-width:124.734;stroke-miterlimit:8"
       d="m 252.34396,62.299267 v 4.7625 h 4.7625 v -4.7625 z"
       id="path19" />
    <path
       style="font-size:38.1px;line-height:1.4;font-family:Unifont;-inkscape-font-specification:Unifont;letter-spacing:0px;opacity:0.997492;fill:#ffffff;stroke-width:124.734;stroke-miterlimit:8"
       d="m 252.34396,74.205516 v 4.7625 h 4.7625 v -4.7625 z"
       id="path18" />
    <path
       style="font-size:38.1px;line-height:1.4;font-family:Unifont;-inkscape-font-specification:Unifont;letter-spacing:0px;opacity:0.997492;fill:#ffffff;stroke-width:124.734;stroke-miterlimit:8"
       d="M 230.91271,78.968016 V 64.680517 h -2.38125 v 14.287499 z m 0,-14.287499 h 9.525 v -2.38125 h -9.525 z"
       id="path17" />
    <path
       style="font-size:38.1px;line-height:1.4;font-family:Unifont;-inkscape-font-specification:Unifont;letter-spacing:0px;opacity:0.997492;fill:#ffffff;stroke-width:124.734;stroke-miterlimit:8"
       d="m 242.81896,67.061767 v -2.38125 h -2.38125 v 2.38125 z"
       id="path16" />
    <path
       style="font-size:38.1px;line-height:1.4;font-family:Unifont;-inkscape-font-specification:Unifont;letter-spacing:0px;opacity:0.997492;fill:#ffffff;stroke-width:124.734;stroke-miterlimit:8"
       d="m 242.81896,78.968016 v -2.38125 h -2.38125 v 2.38125 h -9.525 v 2.38125 h 9.525 v -2.38125 z"
       id="path15" />
    <path
       style="font-size:38.1px;line-height:1.4;font-family:Unifont;-inkscape-font-specification:Unifont;letter-spacing:0px;opacity:0.997492;fill:#ffffff;stroke-width:124.734;stroke-miterlimit:8"
       d="m 209.48147,62.299267 v 23.812499 h 2.38125 v -7.14375 h 2.38125 v 2.38125 h 7.14375 v -2.38125 h -7.14375 v -2.38125 h -2.38125 v -9.524999 h 2.38125 v -2.38125 h -2.38125 v -2.38125 z m 11.90625,16.668749 h 2.38125 V 64.680517 h -2.38125 z m -7.14375,-14.287499 h 7.14375 v -2.38125 h -7.14375 z"
       id="path14" />
    <path
       style="font-size:38.1px;line-height:1.4;font-family:Unifont;-inkscape-font-specification:Unifont;letter-spacing:0px;opacity:0.997492;fill:#ffffff;stroke-width:124.734;stroke-miterlimit:8"
       d="m 202.33772,71.824266 v -2.381249 h -9.525 v 2.381249 z"
       id="path13" />
    <path
       style="font-size:38.1px;line-height:1.4;font-family:Unifont;-inkscape-font-specification:Unifont;letter-spacing:0px;opacity:0.997492;fill:#ffffff;stroke-width:124.734;stroke-miterlimit:8"
       d="m 183.28772,59.918017 v -2.38125 h -7.14375 v 2.38125 h -2.38125 v 2.38125 h -2.38125 v 16.668749 h 2.38125 v 2.38125 h 9.525 v -2.38125 h -9.525 v -9.524999 h 9.525 v 9.524999 h 2.38125 v -9.524999 h -2.38125 v -2.38125 h -9.525 v -4.7625 h 2.38125 v -2.38125 z"
       id="path12" />
    <path
       style="font-size:38.1px;line-height:1.4;font-family:Unifont;-inkscape-font-specification:Unifont;letter-spacing:0px;opacity:0.997492;fill:#ffffff;stroke-width:124.734;stroke-miterlimit:8"
       d="m 154.71271,78.968016 v 2.38125 h 9.525 v -2.38125 z m 0,0 v -9.524999 h -2.38125 v 9.524999 z m 9.525,0 h 2.38125 v -9.524999 h -2.38125 z m -9.525,-9.524999 h 9.525 v -2.38125 h -9.525 z m 0,-2.38125 v -7.14375 h -2.38125 v 7.14375 z m 9.525,0 h 2.38125 v -7.14375 h -2.38125 z m -9.525,-7.14375 h 9.525 v -2.38125 h -9.525 z"
       id="path11" />
    <path
       style="font-size:38.1px;line-height:1.4;font-family:Unifont;-inkscape-font-specification:Unifont;letter-spacing:0px;opacity:0.997492;fill:#ffffff;stroke-width:124.734;stroke-miterlimit:8"
       d="m 135.66272,67.061767 v -4.7625 h -2.38125 v 4.7625 z"
       id="path10" />
    <path
       style="font-size:38.1px;line-height:1.4;font-family:Unifont;-inkscape-font-specification:Unifont;letter-spacing:0px;opacity:0.997492;fill:#ffffff;stroke-width:124.734;stroke-miterlimit:8"
       d="m 145.18772,76.586766 v 4.7625 h 2.38125 v -4.7625 z m 0,0 v -2.38125 h -2.38125 v 2.38125 z"
       id="path9" />
    <path
       style="font-size:38.1px;line-height:1.4;font-family:Unifont;-inkscape-font-specification:Unifont;letter-spacing:0px;opacity:0.997492;fill:#ffffff;stroke-width:124.734;stroke-miterlimit:8"
       d="m 133.28147,76.586766 v 4.7625 h 2.38125 v -4.7625 z m 2.38125,0 h 2.38125 v -2.38125 h -2.38125 z m 2.38125,-2.38125 h 4.7625 v -4.762499 h -4.7625 z m 0,-4.762499 v -2.38125 h -2.38125 v 2.38125 z m 4.7625,0 h 2.38125 v -2.38125 h -2.38125 z m 2.38125,-2.38125 h 2.38125 v -4.7625 h -2.38125 z"
       id="path8" />
    <path
       style="font-size:38.1px;line-height:1.4;font-family:Unifont;-inkscape-font-specification:Unifont;letter-spacing:0px;opacity:0.997492;fill:#ffffff;stroke-width:124.734;stroke-miterlimit:8"
       d="m 128.51897,81.349266 v -2.38125 h -4.7625 V 55.155517 h -4.7625 v 2.38125 h 2.38125 v 21.431249 h -4.7625 v 2.38125 z"
       id="path7" />
    <path
       style="font-size:38.1px;line-height:1.4;font-family:Unifont;-inkscape-font-specification:Unifont;letter-spacing:0px;opacity:0.997492;fill:#ffffff;stroke-width:124.734;stroke-miterlimit:8"
       d="m 102.32522,74.205516 v 2.38125 h 7.14375 V 59.918017 h -2.38125 v 4.7625 h -2.38125 v 2.38125 h 2.38125 v 7.143749 z m 0,0 v -9.524999 h -2.38125 v 9.524999 z m 0,-9.524999 h 2.38125 v -2.38125 h -2.38125 z"
       id="path6" />
    <path
       style="font-size:38.1px;line-height:1.4;font-family:Unifont;-inkscape-font-specification:Unifont;letter-spacing:0px;opacity:0.997492;fill:#ffffff;stroke-width:124.734;stroke-miterlimit:8"
       d="m 109.46897,81.349266 v -2.38125 h -9.525 v 2.38125 z m -9.525,-2.38125 v -2.38125 h -2.38125 v 2.38125 z m -2.38125,-2.38125 V 62.299267 h -2.38125 v 14.287499 z m 0,-14.287499 h 2.38125 v -2.38125 h -2.38125 z m 2.38125,-2.38125 h 7.14375 v -2.38125 h -7.14375 z"
       id="path5" />
    <path
       style="font-size:38.1px;line-height:1.4;font-family:Unifont;-inkscape-font-specification:Unifont;letter-spacing:0px;opacity:0.997492;fill:#ffffff;stroke-width:124.734;stroke-miterlimit:8"
       d="m 88.037721,59.918017 v -2.38125 h -7.14375 v 2.38125 h -2.38125 v 2.38125 h -2.38125 v 16.668749 h 2.38125 v 2.38125 h 9.525 v -2.38125 h -9.525 v -9.524999 h 9.525 v 9.524999 h 2.38125 v -9.524999 h -2.38125 v -2.38125 h -9.525 v -4.7625 h 2.38125 v -2.38125 z"
       id="path4" />
    <path
       style="font-size:38.1px;line-height:1.4;font-family:Unifont;-inkscape-font-specification:Unifont;letter-spacing:0px;opacity:0.997492;fill:#ffffff;stroke-width:124.734;stroke-miterlimit:8"
       d="m 59.462722,78.968016 v 2.38125 h 9.524999 v -2.38125 z m 0,0 v -9.524999 h -2.38125 v 9.524999 z m 9.524999,0 h 2.38125 v -9.524999 h -2.38125 z m -9.524999,-9.524999 h 9.524999 v -2.38125 h -9.524999 z m 0,-2.38125 v -7.14375 h -2.38125 v 7.14375 z m 9.524999,0 h 2.38125 v -7.14375 h -2.38125 z m -9.524999,-7.14375 h 9.524999 v -2.38125 h -9.524999 z"
       id="path3" />
    <path
       style="font-size:38.1px;line-height:1.4;font-family:Unifont;-inkscape-font-specification:Unifont;letter-spacing:0px;opacity:0.997492;fill:#ffffff;stroke-width:124.734;stroke-miterlimit:8"
       d="m 49.937722,76.586766 v 4.7625 h 2.38125 v -4.7625 z m 0,0 v -2.38125 h -2.38125 v 2.38125 z m -7.14375,-2.38125 h 4.7625 v -4.762499 h -4.7625 z m 0,-4.762499 v -2.38125 h -2.381249 v 2.38125 z m 4.7625,0 h 2.38125 v -2.38125 h -2.38125 z m -7.143749,-2.38125 v -4.7625 h -2.38125 v 4.7625 z m 9.524999,0 h 2.38125 v -4.7625 h -2.38125 z"
       id="path2" />
    <path
       style="font-size:38.1px;line-height:1.4;font-family:Unifont;-inkscape-font-specification:Unifont;letter-spacing:0px;opacity:0.997492;fill:#ffffff;stroke-width:124.734;stroke-miterlimit:8"
       d="m 38.031473,76.586766 v 4.7625 h 2.38125 v -4.7625 z m 2.38125,0 h 2.381249 v -2.38125 h -2.381249 z"
       id="path1" />
    <path
       style="font-size:38.1px;line-height:1.4;font-family:Unifont;-inkscape-font-specification:Unifont;letter-spacing:0px;opacity:0.997492;fill:#ffffff;stroke-width:124.734;stroke-miterlimit:8"
       d="m 33.268973,81.349266 v -2.38125 h -4.7625 V 55.155517 h -4.7625 v 2.38125 h 2.38125 v 21.431249 h -4.7625 v 2.38125 z"
       id="text1" />
  </g>
</svg>
